<?xml version="1.0" encoding="utf-8"?>
<!-- Generator: Adobe Illustrator 28.0.0, SVG Export Plug-In . SVG Version: 6.00 Build 0)  -->
<svg version="1.1" id="Layer_1" xmlns="http://www.w3.org/2000/svg" xmlns:xlink="http://www.w3.org/1999/xlink" x="0px" y="0px"
	 viewBox="0 0 4.46 4.46" style="enable-background:new 0 0 4.46 4.46;" xml:space="preserve">
<style type="text/css">
	.st0{fill:#FFFFFF;}
</style>
<g>
	<path class="st0" d="M2.98,3.48C2.96,3.49,2.93,3.5,2.91,3.5c-0.45,0-0.91,0-1.36,0c-0.02,0-0.04-0.01-0.06-0.02
		c0-0.01,0-0.01,0-0.02c-0.2,0.11-0.41,0.06-0.62,0.06c0,0.03,0,0.06,0,0.09c0,0.07-0.04,0.11-0.11,0.11c-0.12,0-0.24,0-0.36,0
		c-0.07,0-0.11-0.04-0.11-0.11c0-0.42,0-0.84,0-1.26c0-0.11,0.03-0.2,0.13-0.26c0.02-0.01,0.03-0.03,0.04-0.04
		C0.51,2.01,0.55,1.97,0.56,1.9c0-0.02,0.02-0.05,0.04-0.07c0.02-0.03,0.05-0.05,0.08-0.08c-0.05,0-0.1-0.01-0.14-0.01
		c-0.06,0-0.12-0.01-0.18-0.01C0.28,1.72,0.25,1.68,0.28,1.6C0.3,1.54,0.33,1.51,0.39,1.49c0.12-0.04,0.24-0.04,0.37-0.04
		c0.01,0,0.02,0.01,0.03,0.01C0.78,1.47,0.77,1.49,0.76,1.5c-0.05,0.02-0.07,0.05-0.08,0.1c0,0.01,0,0.04,0.01,0.04
		c0.02,0.01,0.04,0,0.05-0.02c0.03-0.06,0.05-0.13,0.09-0.19C0.9,1.3,0.97,1.17,1.05,1.05c0.04-0.06,0.09-0.11,0.15-0.17
		c0.02-0.02,0.05-0.02,0.07-0.03c0.06,0,0.12,0,0.18,0c0-0.08,0.05-0.09,0.1-0.09c0.13-0.01,0.27-0.02,0.41-0.02
		c0.25,0,0.5,0,0.75,0c0.07,0,0.14,0.01,0.22,0.02c0.05,0.01,0.09,0.02,0.09,0.09c0.06,0,0.12,0,0.19,0c0.02,0,0.05,0.01,0.07,0.02
		c0.05,0.05,0.11,0.11,0.15,0.17c0.12,0.17,0.21,0.36,0.3,0.55c0,0.01,0.01,0.02,0.02,0.03c0.01,0.01,0.03,0.01,0.04,0.01
		c0,0,0.01-0.02,0.01-0.03C3.77,1.56,3.75,1.52,3.7,1.5C3.69,1.49,3.68,1.47,3.67,1.46c0.01,0,0.03-0.01,0.04-0.01
		c0.12,0.01,0.23,0.02,0.35,0.04C4.12,1.5,4.16,1.54,4.18,1.6c0.03,0.08,0,0.12-0.08,0.13C4.01,1.74,3.92,1.74,3.83,1.75
		c-0.01,0-0.03,0-0.05,0C3.8,1.78,3.82,1.8,3.85,1.82c0.04,0.03,0.06,0.07,0.07,0.12c0,0.02,0.02,0.04,0.03,0.06
		C4,2.05,4.06,2.1,4.12,2.15c0.02,0.02,0.04,0.05,0.04,0.08c0.01,0.17,0.01,0.35,0.01,0.52c0,0.28,0,0.56,0,0.83
		c0,0.1-0.04,0.13-0.13,0.13c-0.11,0-0.21,0-0.32,0c-0.08,0-0.12-0.04-0.12-0.12c0-0.02,0-0.05,0-0.08c-0.21,0-0.42,0.05-0.61-0.06
		C2.98,3.47,2.98,3.47,2.98,3.48z M3.61,1.67C3.6,1.64,3.6,1.61,3.58,1.59C3.52,1.44,3.44,1.3,3.37,1.15
		C3.35,1.11,3.34,1.05,3.3,1.03C3.27,1,3.21,1.01,3.16,1.01c0,0-0.01,0-0.01,0C2.77,0.99,2.4,0.95,2.02,0.97
		C1.89,0.97,1.76,0.98,1.63,0.99C1.48,1,1.33,1.01,1.18,1.02c-0.01,0-0.03,0.01-0.04,0.02C1.05,1.23,0.96,1.41,0.87,1.6
		C0.86,1.62,0.86,1.64,0.85,1.67C1.77,1.67,2.69,1.67,3.61,1.67z M2.44,2.36c-0.15,0-0.19,0.05-0.18,0.2c0,0.01,0,0.04,0,0.06
		c0,0.06,0.05,0.11,0.11,0.11c0.15,0,0.3,0,0.44-0.01C2.93,2.71,3.03,2.67,3.1,2.56c0.01-0.01,0.02-0.02,0.04-0.02
		C3.22,2.53,3.3,2.53,3.36,2.59c0.03,0.03,0.06,0.04,0.1,0.03c0.15-0.02,0.3-0.04,0.44-0.07c0.17-0.03,0.16-0.18,0.13-0.28
		C4.03,2.25,4.01,2.23,4,2.23C3.94,2.22,3.88,2.21,3.83,2.22C3.62,2.28,3.4,2.34,3.19,2.4c-0.04,0.01-0.07,0.01-0.1-0.01
		C3.07,2.38,3.04,2.37,3.02,2.37 M1.9,2.74C1.9,2.74,1.9,2.73,1.9,2.74c0.06-0.01,0.11-0.01,0.17-0.01c0.08,0,0.12-0.04,0.13-0.13
		c0-0.03,0-0.07,0-0.1c0-0.09-0.05-0.13-0.13-0.13c-0.2,0-0.4,0-0.61,0c-0.03,0-0.07,0.02-0.1,0.03c-0.02,0-0.04,0.01-0.05,0.01
		C1.08,2.35,0.86,2.29,0.64,2.23c-0.06-0.02-0.11-0.02-0.17,0C0.45,2.23,0.43,2.26,0.42,2.28C0.38,2.42,0.41,2.52,0.57,2.56
		C0.7,2.58,0.84,2.6,0.98,2.62c0.05,0.01,0.09,0,0.12-0.03c0.06-0.06,0.13-0.06,0.21-0.05c0.02,0,0.04,0.02,0.05,0.03
		c0.05,0.07,0.12,0.12,0.21,0.13 M2.15,3.41C2.41,3.4,2.59,3.4,2.77,3.39c0.1,0,0.2-0.02,0.3-0.03c0.06-0.01,0.08-0.04,0.05-0.1
		C3.1,3.22,3.07,3.19,3.05,3.15C3.01,3.06,2.94,3.03,2.84,3.03c-0.2,0-0.4-0.02-0.6-0.02c-0.23,0-0.46,0.01-0.69,0.03
		c-0.03,0-0.07,0.02-0.09,0.04C1.42,3.13,1.38,3.19,1.35,3.25C1.31,3.31,1.33,3.34,1.4,3.36c0.01,0,0.03,0.01,0.04,0.01
		C1.7,3.38,1.96,3.4,2.15,3.41z M0.51,2.8c0,0.03,0,0.07,0,0.1c0.01,0.11,0.03,0.22,0.04,0.32C0.56,3.28,0.6,3.31,0.65,3.32
		c0.04,0.01,0.09,0.01,0.13,0.02C0.92,3.36,1.06,3.34,1.2,3.28c0.01-0.01,0.03-0.01,0.04-0.03c0.04-0.06,0.07-0.12,0.11-0.19
		c0-0.01-0.01-0.03-0.02-0.03C1.32,3.02,1.3,3.02,1.29,3.02C1.13,3,0.96,2.97,0.8,2.95c-0.07-0.01-0.12-0.03-0.16-0.1
		C0.62,2.8,0.57,2.78,0.51,2.8z M3.98,2.8c-0.06-0.02-0.1-0.01-0.13,0.05c-0.03,0.07-0.09,0.09-0.16,0.1
		c-0.05,0-0.09,0.02-0.14,0.02C3.43,2.99,3.31,3,3.19,3.02C3.13,3.03,3.13,3.04,3.16,3.09c0.02,0.05,0.05,0.09,0.08,0.13
		C3.25,3.24,3.28,3.27,3.3,3.28c0.18,0.09,0.37,0.08,0.56,0.03C3.9,3.3,3.92,3.28,3.93,3.24C3.97,3.1,3.98,2.95,3.98,2.8z"/>
</g>
</svg>
