<?xml version="1.0" encoding="utf-8"?>
<!-- Generator: Adobe Illustrator 28.0.0, SVG Export Plug-In . SVG Version: 6.00 Build 0)  -->
<svg version="1.1" id="Layer_1" xmlns="http://www.w3.org/2000/svg" xmlns:xlink="http://www.w3.org/1999/xlink" x="0px" y="0px"
	 viewBox="0 0 392.2 294.1" style="enable-background:new 0 0 392.2 294.1;" xml:space="preserve">
<style type="text/css">
	.st0{fill:#FFFFFF;}
</style>
<g>
	<path class="st0" d="M173.2,152.9c3.8,11.3,7.7,22.7,12.4,36.6c1.4-10.9,9.4-18.4,1.4-27.3c-0.7-0.8,0.8-5.5,1.7-5.6
		c4.6-0.7,9.5-1,14.1-0.4c1.1,0.1,3.2,5.3,2.4,6.1c-7.4,8.5,0.1,16,2.3,24.3c3.7-11.4,7.4-22.8,11-33.9c12.8,3.6,25.2,7.3,37.7,10.6
		c15.3,4.1,21.5,14.8,22.2,29.7c0.7,14.1,1.2,28.2,1.9,42.2c0.4,7.3-3.3,10.4-10.3,11.6c-49.2,8-98.3,8.5-147.6,0.1
		c-6.3-1.1-10.9-3.3-10.6-10.2c0.7-16.3,1.8-32.7,2.8-49c0.8-13.9,9.6-20.8,21.9-24.4C148.5,159.6,160.4,156.5,173.2,152.9z"/>
	<path class="st0" d="M292.8,148.6c3.4,9.9,6.7,19.7,10.8,31.6c1.9-9,8.6-15.3,2.1-23.2c-0.7-0.8,0.5-4.6,1.2-4.8
		c3.7-0.7,7.6-1,11.3-0.5c0.9,0.1,1.9,3.6,1.9,5.5c0.2,6.6,0.1,13.2,0.1,19.8c1,0.1,2,0.3,3,0.4c3.1-9.7,6.3-19.3,9.3-28.4
		c10.3,2.9,20.1,5.5,29.8,8.4c15.2,4.5,20,10.2,20.9,25.7c0.7,11.8,1.7,23.6,1.4,35.4c-0.1,3.5-3.8,9.7-6.2,9.9
		c-28.3,2.4-56.7,3.9-85.1,5.5c-0.6,0-1.2-0.5-2.7-1.2c-0.6-12.2-1.3-24.9-1.8-37.6c-0.7-15.3-4-29.4-20.3-37.9
		C277.2,154.1,284.7,151.5,292.8,148.6z"/>
	<path class="st0" d="M101.9,233.1c-29.4,0.8-57.7,1-85.7-6c-7.1-1.8-9.7-5.1-8.4-12.4c1.6-9,2.3-18.2,3.4-27.3
		c1.5-12.5,8.2-21.1,19.8-26c8.1-3.4,16.1-6.8,26.2-11c-5.4,7.6-9.6,13.5-14.6,20.6c4.8,0.6,7.8,1,10.1,1.2
		c2.3,13.5,15.2,13.9,23.1,19.7c11.8,8.7,17.6-7.7,28.6-7.4C103.5,200,102.7,215.8,101.9,233.1z"/>
	<path class="st0" d="M111.2,137c-0.5-9.7-0.9-18.5-1.3-27.3c-1-0.1-2.1-0.2-3.1-0.3c-0.6,1.1-1.1,2.2-2,4.1
		c-12.1-10.7-24-21.3-36.6-32.5C54.5,96,51.3,114.8,57.7,135.6c-12.2,3.5-14.6,2.1-17.1-9.6c-3.2-15.4-0.1-29.8,6.9-43.7
		c13.8-27.2,53.2-29,68.1-0.2c8,15.5,10.4,31.5,5.8,48.4C120,136.6,116.7,138.8,111.2,137z"/>
	<path class="st0" d="M230.3,80.7c1.4,4.4,3.3,8.8,3.9,13.3c0.6,4,0.9,8.8-0.9,12.1c-4.7,8.9-9.9,17.8-16.2,25.7
		c-11.8,14.5-30.6,14.2-42.2-0.6c-6-7.7-11.1-16.2-15.7-24.9c-1.8-3.3-1.4-8.1-1.1-12.1c0.4-4.6,2.7-9.2,2.7-13.8
		c-0.4-26.4,18.5-41.7,44.6-35.7C224.1,48.9,232.4,60.2,230.3,80.7z M223.1,83.4c-5.2-1-13.2-1.5-20.4-4.2
		c-7.2-2.7-13.4-7.9-20.5-11c-2.3-1-7.5-0.1-8.7,1.7c-3.1,4.6-4.9,10.1-6.7,15.4c-0.9,2.6,0.5,7.7-0.7,8.2
		c-8.1,3.6-3.7,8.7-1.7,12.8c3.6,7.3,7.5,14.6,12.2,21.2c9.7,13.6,28.7,13.9,38.6,0.7c5.4-7.3,9.7-15.5,13.9-23.6
		c1.2-2.3,1.2-5.9,0.4-8.4C228.3,92.3,225.9,88.7,223.1,83.4z"/>
	<path class="st0" d="M342.2,86.5c1.1,3.8,2.3,7.7,3.3,11.6c0.4,1.6,0.7,3.2,0.7,4.8c-0.1,10.4-17.5,34.3-27.7,35.5
		c-6.5,0.8-15.5-0.6-19.7-4.7c-7.7-7.6-16.6-17.5-17.8-27.4c-1.6-13,1.8-27.6,6.9-39.9c4.6-11.1,24.3-14.1,38.2-8.9
		C338.7,62.2,344.3,71.5,342.2,86.5z M336.8,90.9c-10.3-3.7-20.3-7.4-30.4-10.9c-3.9-1.4-10.1-4.4-11.6-2.9c-3.5,3.4-5,9.1-7.1,13.9
		c-1.2,2.8-2.3,5.6-3.1,8.5c-0.5,1.7-1.1,4.1-0.4,5.4c4.7,8.5,9,17.5,15,25.1c5.4,6.8,13.7,7.1,21.7,4.2
		c6.3-2.3,21.3-23.9,21.3-30.6c0-1.2-0.3-2.6-0.8-3.7C340,96.8,338.3,93.8,336.8,90.9z"/>
	<path class="st0" d="M101.1,158.2c-1.9,4.2-2.3,6.6-3.7,8c-7.3,7.4-24.1,7.3-31.5,0c-1.2-1.2-2-3.1-2.3-4.9
		c-0.1-0.5,2.7-2.2,3.7-1.9c5.5,1.6,10.8,5,16.2,5C88.5,164.5,93.4,161.1,101.1,158.2z"/>
</g>
</svg>
